<?xml version="1.0" standalone="no"?>
<!DOCTYPE svg PUBLIC "-//W3C//DTD SVG 20010904//EN"
 "http://www.w3.org/TR/2001/REC-SVG-20010904/DTD/svg10.dtd">
<svg version="1.0" xmlns="http://www.w3.org/2000/svg"
 width="150.000000pt" height="150.000000pt" viewBox="0 0 150.000000 150.000000"
 preserveAspectRatio="xMidYMid meet">
<metadata>
Created by potrace 1.10, written by Peter Selinger 2001-2011
</metadata>
<g transform="translate(0.000000,150.000000) scale(0.100000,-0.100000)"
fill="#000000" stroke="none">
<path d="M430 1457 c-106 -53 -150 -83 -218 -149 -79 -76 -126 -142 -172 -240
-39 -84 -40 -88 -39 -189 l2 -104 7 75 c32 325 315 608 640 640 l75 7 -105 1
c-105 2 -105 1 -190 -41z"/>
<path d="M855 1490 c318 -34 597 -312 635 -630 7 -65 7 -64 9 34 1 95 -1 103
-35 175 -85 180 -235 328 -397 393 -28 12 -56 25 -62 30 -5 4 -56 7 -115 7
l-105 -2 70 -7z"/>
<path d="M757 1254 c-21 -14 -45 -23 -53 -20 -9 4 -12 2 -8 -5 4 -7 3 -10 -2
-7 -90 43 -137 52 -178 33 -15 -6 -18 -5 -12 6 4 8 -11 -5 -33 -29 -42 -45
-81 -132 -81 -180 0 -22 -7 -30 -31 -39 -18 -7 -36 -10 -42 -6 -6 3 -7 1 -4
-4 6 -10 -19 -28 -35 -25 -3 1 -20 -14 -37 -34 -51 -57 -36 -141 39 -222 l31
-34 -27 -54 c-51 -104 -30 -204 52 -252 33 -19 51 -22 117 -20 l78 2 20 -44
c11 -25 33 -58 49 -75 l29 -30 -151 2 c-91 2 -148 -1 -142 -6 11 -11 553 -20
732 -13 69 3 122 9 122 15 0 6 -51 8 -134 5 -83 -2 -132 0 -129 6 4 5 -1 7
-11 3 -10 -4 -15 -3 -11 4 4 5 15 7 25 4 14 -5 24 7 49 56 17 34 31 73 31 86
0 15 6 23 18 23 24 1 147 54 188 82 40 27 64 73 63 120 0 27 -2 30 -9 13 -7
-16 -9 -17 -9 -3 -1 9 -4 25 -7 35 -5 15 -4 15 5 3 6 -8 11 -10 11 -5 0 14
-20 43 -20 30 -1 -12 -30 25 -30 38 0 4 5 5 12 1 7 -4 8 -3 4 5 -4 6 -11 9
-16 6 -4 -3 -13 2 -20 10 -10 12 -7 23 13 57 70 121 73 235 8 285 -32 24 -30
12 1 -16 25 -23 30 -33 21 -41 -8 -9 -13 -7 -18 9 -19 61 -155 67 -283 13 -38
-16 -109 -51 -158 -78 -49 -27 -91 -49 -94 -49 -38 -7 -79 -20 -97 -31 -27
-17 -26 -19 -12 63 6 35 15 63 20 63 18 0 109 -50 109 -60 0 -15 12 -12 40 9
21 17 22 19 5 18 -14 -2 -20 5 -22 28 -1 22 0 26 7 15 7 -11 14 -12 25 -5 27
16 22 29 -12 40 -36 10 -42 28 -15 44 14 9 15 10 1 11 -9 0 -23 -8 -32 -18
-18 -19 -23 -62 -9 -62 5 0 9 -7 9 -15 0 -8 -2 -15 -3 -15 -11 0 -54 25 -54
31 0 4 -9 5 -20 2 -36 -9 -23 23 33 83 l53 56 37 -46 c21 -25 36 -46 32 -46
-3 0 4 -10 15 -22 12 -13 19 -31 17 -40 -4 -14 -2 -16 13 -8 10 5 20 17 24 25
4 11 2 14 -6 9 -7 -5 -9 -2 -5 9 5 14 -65 127 -79 127 -3 0 10 -21 29 -47 37
-52 56 -85 40 -68 -32 33 -83 116 -77 126 13 21 109 59 151 59 53 0 76 -22
105 -102 12 -35 27 -58 36 -58 18 0 12 39 -15 97 -26 58 -26 59 -14 47 6 -6
21 -33 32 -60 12 -29 17 -37 14 -19 -7 33 -37 90 -45 84 -3 -2 -21 6 -41 19
-20 12 -53 22 -72 22 -46 0 -128 -36 -190 -83 -50 -39 -62 -45 -52 -24 4 6
-11 -7 -33 -29 -23 -23 -44 -39 -48 -35 -4 3 -4 0 0 -6 4 -7 4 -18 1 -23 -9
-15 -37 9 -28 24 3 6 -2 4 -11 -5 -19 -18 -13 -46 12 -52 10 -2 -18 -6 -61 -8
-77 -4 -77 -4 -76 21 0 23 1 23 9 5 8 -20 9 -20 9 1 2 45 34 115 67 144 42 37
75 38 131 6 l43 -25 66 45 c36 24 62 44 57 44 -5 0 -25 -12 -46 -26z m408
-208 c44 -19 58 -48 53 -106 -4 -43 -42 -135 -61 -147 -9 -6 -40 17 -32 25 9
9 -16 31 -30 26 -24 -9 -27 16 -9 72 13 43 15 60 5 80 -6 14 -11 34 -11 44 0
24 35 27 85 6z m-121 -12 c5 -14 -10 -143 -18 -151 -8 -8 -35 10 -29 20 3 5 2
7 -4 4 -14 -9 -83 12 -83 24 0 6 -4 7 -10 4 -5 -3 -10 -4 -10 -1 0 2 -3 13 -6
23 -5 15 -4 16 5 3 9 -12 10 -10 6 11 -6 25 -2 28 62 52 82 31 79 31 87 11z
m-501 -97 c-4 -57 -10 -77 -20 -77 -8 0 -26 -12 -40 -26 -28 -28 -37 -24 -47
21 -5 24 -4 27 5 15 9 -13 10 -12 5 3 -3 10 -6 23 -6 28 0 6 -5 7 -12 3 -8 -5
-9 2 -5 26 4 18 7 43 7 56 0 21 5 23 58 26 31 2 58 3 59 3 1 0 -1 -35 -4 -78z
m-153 0 c1 -23 9 -67 20 -97 10 -30 16 -57 12 -60 -4 -3 -20 -16 -37 -30 l-30
-25 30 34 c25 27 26 32 8 22 -12 -6 -32 -25 -44 -42 -18 -26 -24 -29 -35 -17
-8 8 -16 25 -19 37 -2 13 -7 26 -10 29 -3 3 4 11 15 19 32 22 21 83 -15 83 -5
0 -4 -4 4 -9 9 -6 11 -16 7 -27 -6 -16 -8 -16 -16 -4 -7 11 -10 8 -10 -12 0
-16 -5 -28 -11 -28 -6 0 -9 9 -6 20 3 11 1 23 -4 26 -5 3 -9 15 -8 27 0 13 3
16 6 9 4 -10 9 -7 17 10 13 26 105 90 118 82 4 -3 8 -24 8 -47z m470 23 c21
-13 5 -24 -37 -26 l-36 -1 22 19 c26 21 30 21 51 8z m-61 -80 c33 -42 31 -47
-16 -29 -28 10 -93 4 -93 -9 0 -4 24 -7 53 -7 32 -1 70 -9 99 -23 26 -12 51
-22 55 -22 5 0 16 -28 25 -62 16 -60 16 -62 -4 -90 -13 -19 -18 -37 -14 -52 6
-26 -15 -51 -36 -43 -7 3 -4 6 7 7 19 1 19 2 -3 20 l-23 19 21 40 c24 47 25
106 4 141 l-15 25 8 -25 c19 -59 -2 -150 -33 -150 -8 0 -13 3 -11 8 3 4 -27 8
-67 10 -50 2 -68 0 -60 -7 5 -6 36 -12 68 -14 l58 -2 -48 -42 c-27 -24 -54
-43 -60 -43 -6 0 -19 10 -30 21 l-19 22 38 -7 c43 -8 52 10 10 21 -16 4 -31 7
-36 8 -4 0 -16 14 -26 31 -19 32 -19 32 2 26 20 -5 19 -3 -6 43 -15 26 -27 58
-27 71 0 24 44 77 55 66 3 -4 4 0 1 8 -3 9 11 27 37 47 23 18 45 33 48 33 3 0
20 -18 38 -40z m89 -16 c10 -32 9 -34 -14 -34 -15 0 -24 6 -24 16 0 8 -7 22
-15 30 -22 23 -18 31 14 26 22 -3 31 -11 39 -38z m-242 -8 c-14 -19 -26 -40
-26 -46 0 -7 -6 -10 -12 -7 -44 16 -55 15 -86 -12 l-33 -28 25 -44 c16 -27 25
-36 24 -23 -1 11 4 34 11 51 9 23 17 29 32 26 16 -5 18 -11 13 -39 -8 -41 22
-131 48 -145 27 -14 24 -42 -3 -34 -16 6 -20 4 -14 -6 6 -11 5 -12 -6 -1 -7 6
-22 12 -33 12 -31 0 -128 48 -121 60 3 5 0 7 -8 4 -8 -3 -18 0 -23 7 -5 8 -3
10 6 4 8 -5 11 -4 6 3 -4 6 -12 9 -19 7 -7 -2 -22 4 -35 15 -26 22 -22 38 22
79 39 36 44 17 8 -28 -38 -48 -24 -67 15 -20 l27 31 17 -21 c12 -15 16 -32 12
-55 -5 -30 -2 -36 23 -49 16 -8 44 -18 62 -22 45 -9 42 11 -10 66 -47 49 -98
119 -98 134 0 6 23 25 51 43 46 30 61 37 107 46 7 1 18 8 24 14 23 23 20 12
-6 -22z m328 14 c49 -21 52 -26 35 -64 l-11 -24 -33 19 c-30 18 -44 43 -45 77
0 16 0 16 54 -8z m196 -78 c17 22 30 37 30 31 0 -17 -60 -94 -69 -89 -4 3 -19
-6 -31 -19 -13 -14 -20 -25 -15 -25 5 0 -2 -11 -15 -25 -13 -14 -27 -25 -32
-25 -4 0 -17 -9 -28 -20 -11 -11 -24 -20 -28 -20 -11 0 0 70 15 95 11 19 12
19 32 1 11 -10 18 -24 14 -30 -4 -6 1 -5 10 3 13 10 14 17 6 27 -6 7 -8 18 -5
23 4 5 1 13 -5 17 -8 5 -9 3 -4 -6 5 -9 4 -11 -3 -6 -16 10 -15 26 4 72 l16
38 39 -42 39 -41 30 41z m-193 -69 l-12 -26 -6 24 c-13 44 -11 51 11 39 17 -9
18 -14 7 -37z m227 -55 c58 -116 21 -175 -147 -232 -65 -22 -89 -26 -135 -21
-58 7 -182 58 -182 76 0 5 9 4 19 -3 16 -10 27 -9 55 5 40 19 40 19 26 -17 -5
-14 -8 -26 -6 -26 3 0 11 -2 19 -6 15 -5 43 48 33 64 -3 4 17 18 45 29 l49 21
0 -65 c0 -55 2 -64 17 -61 22 4 34 51 26 105 l-6 44 74 69 c41 38 77 69 81 70
3 0 18 -23 32 -52z m-828 -29 c10 -12 43 -35 72 -51 51 -29 52 -31 52 -76 1
-26 6 -59 13 -73 l12 -27 56 18 c31 10 71 26 89 35 l32 17 -23 24 c-35 38 -18
35 19 -3 19 -19 28 -33 20 -32 -7 2 -31 -6 -53 -18 -62 -31 -142 -55 -165 -48
-11 4 -20 2 -20 -4 0 -15 -41 -14 -81 3 -19 7 -39 12 -45 9 -6 -2 -23 10 -38
27 -22 27 -25 38 -20 73 8 51 43 147 53 147 4 0 16 -10 27 -21z m178 -24 c18
-27 15 -30 -15 -15 -10 6 -19 17 -19 25 0 23 16 18 34 -10z m399 -43 c-23 -17
-30 1 -12 35 l13 24 9 -23 c6 -17 4 -26 -10 -36z m-115 -12 c11 -17 10 -21 -5
-26 -10 -3 -26 -10 -35 -15 -10 -5 -25 -9 -35 -9 -13 0 -9 9 17 35 40 41 41
41 58 15z m-238 -31 c46 -12 70 -26 70 -39 0 -8 -96 -50 -115 -50 -8 0 -11 10
-8 28 3 23 2 24 -7 7 -7 -15 -8 -11 -4 18 4 24 2 37 -5 37 -6 0 -11 4 -11 9 0
10 5 10 80 -10z m220 -130 c0 -14 -148 -159 -164 -159 -9 0 -21 12 -26 26 -6
14 -14 22 -20 19 -6 -4 -7 1 -3 11 5 13 3 15 -7 9 -8 -5 -11 -4 -7 3 10 15 -3
43 -16 35 -6 -4 -8 0 -4 10 3 10 3 17 -2 17 -4 0 -8 7 -8 15 0 10 7 13 21 10
12 -3 50 10 86 28 l65 33 42 -26 c23 -14 43 -28 43 -31z m148 -14 c8 -7 -42
-105 -63 -125 -26 -24 -45 -22 -83 10 l-24 19 34 55 33 54 50 -5 c28 -3 51 -7
53 -8z m-161 -142 l30 -28 -64 -1 -63 0 33 27 c17 16 33 28 33 29 1 0 15 -12
31 -27z"/>
<path d="M700 770 c-11 -8 -4 -10 31 -8 35 1 53 -4 74 -20 39 -31 55 -28 23 4
-28 29 -102 43 -128 24z"/>
<path d="M1095 551 c0 -25 -4 -57 -9 -71 -8 -22 -7 -23 8 -11 9 7 16 19 16 26
0 7 7 18 16 25 20 18 14 61 -11 70 -18 7 -20 3 -20 -39z"/>
<path d="M400 565 c-6 -7 -8 -20 -4 -29 8 -21 50 -21 58 1 12 30 -33 53 -54
28z"/>
<path d="M1492 671 c-13 -321 -311 -628 -642 -661 l-75 -7 106 -2 c99 -1 112
1 180 31 166 71 306 204 389 370 l51 101 -4 111 c-1 61 -4 87 -5 57z"/>
<path d="M1 610 c-1 -103 0 -106 40 -189 78 -162 205 -294 348 -363 48 -22 94
-44 103 -49 10 -5 77 -8 150 -7 l133 1 -100 7 c-109 8 -196 33 -285 82 -210
117 -356 329 -380 553 l-7 70 -2 -105z"/>
</g>
</svg>
